<svg width="101" height="39" viewBox="0 0 101 39" fill="none" xmlns="http://www.w3.org/2000/svg">
<rect x="0.5" y="0.5" width="100" height="38" rx="3.5" fill="white" stroke="#B8B8B8"/>
<path d="M43.52 18.82C44.0267 18.9 44.4867 19.1067 44.9 19.44C45.3267 19.7733 45.66 20.1867 45.9 20.68C46.1533 21.1733 46.28 21.7 46.28 22.26C46.28 22.9667 46.1 23.6067 45.74 24.18C45.38 24.74 44.8533 25.1867 44.16 25.52C43.48 25.84 42.6733 26 41.74 26H36.54V12.06H41.54C42.4867 12.06 43.2933 12.22 43.96 12.54C44.6267 12.8467 45.1267 13.2667 45.46 13.8C45.7933 14.3333 45.96 14.9333 45.96 15.6C45.96 16.4267 45.7333 17.1133 45.28 17.66C44.84 18.1933 44.2533 18.58 43.52 18.82ZM38.36 18.08H41.42C42.2733 18.08 42.9333 17.88 43.4 17.48C43.8667 17.08 44.1 16.5267 44.1 15.82C44.1 15.1133 43.8667 14.56 43.4 14.16C42.9333 13.76 42.26 13.56 41.38 13.56H38.36V18.08ZM41.58 24.5C42.4867 24.5 43.1933 24.2867 43.7 23.86C44.2067 23.4333 44.46 22.84 44.46 22.08C44.46 21.3067 44.1933 20.7 43.66 20.26C43.1267 19.8067 42.4133 19.58 41.52 19.58H38.36V24.5H41.58ZM48.1256 20.48C48.1256 19.36 48.3523 18.38 48.8056 17.54C49.259 16.6867 49.879 16.0267 50.6656 15.56C51.4656 15.0933 52.3523 14.86 53.3256 14.86C54.2856 14.86 55.119 15.0667 55.8256 15.48C56.5323 15.8933 57.059 16.4133 57.4056 17.04V15.04H59.2456V26H57.4056V23.96C57.0456 24.6 56.5056 25.1333 55.7856 25.56C55.079 25.9733 54.2523 26.18 53.3056 26.18C52.3323 26.18 51.4523 25.94 50.6656 25.46C49.879 24.98 49.259 24.3067 48.8056 23.44C48.3523 22.5733 48.1256 21.5867 48.1256 20.48ZM57.4056 20.5C57.4056 19.6733 57.239 18.9533 56.9056 18.34C56.5723 17.7267 56.119 17.26 55.5456 16.94C54.9856 16.6067 54.3656 16.44 53.6856 16.44C53.0056 16.44 52.3856 16.6 51.8256 16.92C51.2656 17.24 50.819 17.7067 50.4856 18.32C50.1523 18.9333 49.9856 19.6533 49.9856 20.48C49.9856 21.32 50.1523 22.0533 50.4856 22.68C50.819 23.2933 51.2656 23.7667 51.8256 24.1C52.3856 24.42 53.0056 24.58 53.6856 24.58C54.3656 24.58 54.9856 24.42 55.5456 24.1C56.119 23.7667 56.5723 23.2933 56.9056 22.68C57.239 22.0533 57.4056 21.3267 57.4056 20.5ZM61.6413 20.5C61.6413 19.3667 61.8679 18.38 62.3213 17.54C62.7746 16.6867 63.4013 16.0267 64.2013 15.56C65.0146 15.0933 65.9413 14.86 66.9813 14.86C68.3279 14.86 69.4346 15.1867 70.3013 15.84C71.1813 16.4933 71.7613 17.4 72.0413 18.56H70.0813C69.8946 17.8933 69.5279 17.3667 68.9813 16.98C68.4479 16.5933 67.7813 16.4 66.9813 16.4C65.9413 16.4 65.1013 16.76 64.4613 17.48C63.8213 18.1867 63.5013 19.1933 63.5013 20.5C63.5013 21.82 63.8213 22.84 64.4613 23.56C65.1013 24.28 65.9413 24.64 66.9813 24.64C67.7813 24.64 68.4479 24.4533 68.9813 24.08C69.5146 23.7067 69.8813 23.1733 70.0813 22.48H72.0413C71.7479 23.6 71.1613 24.5 70.2813 25.18C69.4013 25.8467 68.3013 26.18 66.9813 26.18C65.9413 26.18 65.0146 25.9467 64.2013 25.48C63.4013 25.0133 62.7746 24.3533 62.3213 23.5C61.8679 22.6467 61.6413 21.6467 61.6413 20.5ZM80.5897 26L76.2897 21.16V26H74.4697V11.2H76.2897V19.9L80.5097 15.04H83.0497L77.8897 20.5L83.0697 26H80.5897Z" fill="#616161"/>
<path d="M12.9411 18.0678L25.1126 18.174L25.0952 20.1739L12.9236 20.0677L18.2406 25.4783L16.8143 26.8799L9.1045 19.0343L16.9501 11.3245L18.3517 12.7508L12.9411 18.0678Z" fill="#616161"/>
</svg>
