<svg width="76" height="98" viewBox="0 0 76 98" fill="none" xmlns="http://www.w3.org/2000/svg">
<path d="M74.9019 64.3012C74.9019 81.9243 58.4903 96.4338 37.951 96.4338C17.4117 96.4338 1 81.9243 1 64.3012C1 46.6781 17.4117 32.1687 37.951 32.1687C58.4903 32.1687 74.9019 46.6781 74.9019 64.3012Z" fill="white" stroke="#780024" stroke-width="2"/>
<path d="M37.1557 72.5L34.0057 50.15V48.35L41.1557 45.7H43.3057L40.6057 72.5H37.1557ZM39.4557 76.85C40.5557 76.85 41.439 77.25 42.1057 78.05C42.8057 78.8167 43.1557 79.7667 43.1557 80.9C43.1557 81.7 42.9057 82.4667 42.4057 83.2C41.9057 83.9 41.2723 84.4667 40.5057 84.9C39.739 85.3 39.0057 85.5 38.3057 85.5C37.239 85.5 36.339 85.1167 35.6057 84.35C34.9057 83.55 34.5557 82.5833 34.5557 81.45C34.5557 80.65 34.8057 79.9 35.3057 79.2C35.8057 78.4667 36.439 77.9 37.2057 77.5C37.9723 77.0667 38.7223 76.85 39.4557 76.85Z" fill="#780024"/>
</svg>
