<svg width="77" height="98" viewBox="0 0 77 98" fill="none" xmlns="http://www.w3.org/2000/svg">
<path d="M75.5963 64.301C75.5963 81.9241 59.1846 96.4335 38.6453 96.4335C18.106 96.4335 1.69434 81.9241 1.69434 64.301C1.69434 46.6779 18.106 32.1685 38.6453 32.1685C59.1846 32.1685 75.5963 46.6779 75.5963 64.301Z" fill="white" stroke="#780024" stroke-width="2"/>
<path d="M37.85 72.5L34.7 50.15V48.35L41.85 45.7H44L41.3 72.5H37.85ZM40.15 76.85C41.25 76.85 42.1333 77.25 42.8 78.05C43.5 78.8167 43.85 79.7667 43.85 80.9C43.85 81.7 43.6 82.4667 43.1 83.2C42.6 83.9 41.9667 84.4667 41.2 84.9C40.4333 85.3 39.7 85.5 39 85.5C37.9333 85.5 37.0333 85.1167 36.3 84.35C35.6 83.55 35.25 82.5833 35.25 81.45C35.25 80.65 35.5 79.9 36 79.2C36.5 78.4667 37.1333 77.9 37.9 77.5C38.6667 77.0667 39.4167 76.85 40.15 76.85Z" fill="#780024"/>
</svg>
