<?xml version="1.0" encoding="UTF-8"?>
<svg version="1.1" xmlns="http://www.w3.org/2000/svg" width="1080" height="1080">
<path d="M0 0 C0.680625 -0.00386719 1.36125 -0.00773437 2.0625 -0.01171875 C7.12155878 -0.00172061 7.12155878 -0.00172061 9.375 1.125 C10.75955816 6.03253595 9.99667923 10.0628988 8.73828125 14.87890625 C8.55453445 15.61790665 8.37078766 16.35690704 8.18147278 17.11830139 C7.59410578 19.45794936 6.98766386 21.79185759 6.375 24.125 C6.18274841 24.86159851 5.99049683 25.59819702 5.79241943 26.3571167 C4.62097697 30.82458299 3.41689218 35.28265166 2.19793701 39.73736572 C1.54414293 42.12967056 0.89575335 44.52338875 0.24853516 46.91748047 C-1.73956583 54.26234802 -3.75032617 61.59904144 -5.83203125 68.91796875 C-6.15905029 70.08400635 -6.48606934 71.25004395 -6.82299805 72.45141602 C-7.41798503 74.56857933 -8.02397945 76.6826976 -8.64379883 78.79272461 C-10.4764407 85.35797013 -10.9678566 91.31921377 -10.625 98.125 C-6.90580135 97.41733007 -5.24251262 96.11849179 -2.90161133 93.08203125 C2.9292693 84.14335481 5.40601938 73.6851229 8.125 63.5 C8.55246567 61.92272759 8.98070134 60.34566369 9.40966797 58.76879883 C10.0708475 56.33575594 10.73075469 53.90240656 11.38656616 51.46791077 C12.89718617 45.86040758 14.44970764 40.26586529 16.0234375 34.67578125 C16.64922425 32.43826114 17.27394342 30.20044674 17.89807129 27.96246338 C18.29593005 26.54139516 18.69651815 25.12108796 19.09997559 23.70159912 C19.66107039 21.72389568 20.2106757 19.74332189 20.7578125 17.76171875 C21.22791748 16.08662231 21.22791748 16.08662231 21.70751953 14.37768555 C22.66493888 9.7121047 22.88840045 5.66520136 21.375 1.125 C25.20504567 -0.08964364 28.94159281 -0.07812719 32.9375 -0.125 C33.94586914 -0.1559375 33.94586914 -0.1559375 34.97460938 -0.1875 C37.74094555 -0.20947685 39.88719361 -0.14266315 42.33984375 1.203125 C44.85354006 5.87006305 43.20716078 11.61257315 41.87792969 16.46484375 C41.38676666 18.28338867 41.38676666 18.28338867 40.88568115 20.13867188 C40.52291396 21.44666124 40.15997406 22.75460272 39.796875 24.0625 C39.42453033 25.42882332 39.05298325 26.79536423 38.68218994 28.16210938 C37.70509536 31.75547615 36.71752739 35.34588047 35.7276001 38.93572998 C34.73548427 42.54012609 33.75276118 46.14707804 32.76953125 49.75390625 C31.65606378 53.83668596 30.5417634 57.91921772 29.42010498 61.99975586 C28.74158191 64.46917313 28.06531443 66.93921146 27.39147949 69.40991211 C26.68161652 72.00436026 25.96388322 74.59574773 25.23840332 77.18579102 C24.86998327 78.5209367 24.50177221 79.85614008 24.13378906 81.19140625 C23.80252014 82.37935791 23.47125122 83.56730957 23.12994385 84.79125977 C22.11142894 89.28889773 21.98704355 93.54495852 22.375 98.125 C25.53597651 97.82730529 26.99763032 97.52235748 29.21875 95.18359375 C34.27642875 87.17957856 36.90954405 79.16995585 39.375 70.125 C39.77240989 68.73017556 40.17083889 67.33564105 40.5703125 65.94140625 C43.46838367 56.1211741 43.46838367 56.1211741 42.375 46.125 C46.29382221 45.2076727 49.97845677 44.96061232 54 44.9375 C55.12664062 44.92332031 56.25328125 44.90914062 57.4140625 44.89453125 C60.375 45.125 60.375 45.125 63.375 47.125 C65.18787097 55.84155448 61.86792694 64.84522851 59.4375 73.125 C56.9166664 81.79381259 54.74108676 90.06582417 54.375 99.125 C58.4403574 98.12940227 60.57393305 97.19729079 63.11279297 93.79882812 C68.05345045 85.35194359 71.13161314 76.77458623 74.03442383 67.45947266 C76.82999867 58.5713864 79.76105024 51.73894976 86.375 45.125 C92.99392087 44.76198789 97.96363108 46.4782079 103.375 50.125 C101.91953498 53.52108504 99.96639701 55.53360299 97.375 58.125 C93.63504566 64.04549308 94.78748293 72.06515677 96.05078125 78.64453125 C96.76403237 81.49415538 97.52401537 84.31371148 98.375 87.125 C101.35469976 86.39435245 101.35469976 86.39435245 104.375 84.125 C106.15838822 80.61454109 107.20730091 76.8773295 108.375 73.125 C112.02026727 62.51266901 115.95298808 53.66272255 125.375 47.125 C130.83573424 44.90025642 134.73547947 44.85155988 140.375 46.125 C143.375 48.1875 143.375 48.1875 145.375 50.125 C145.045 48.805 144.715 47.485 144.375 46.125 C148.4469978 45.16506135 152.3204057 44.92824324 156.5 44.875 C157.71945312 44.84921875 158.93890625 44.8234375 160.1953125 44.796875 C163.375 45.125 163.375 45.125 165.3046875 46.203125 C167.52380481 50.1878174 166.69797902 53.82638221 165.64550781 58.05810547 C164.63743709 61.57288443 163.5754456 65.06776616 162.5 68.5625 C159.45723414 78.76238034 157.0357969 88.48616988 156.375 99.125 C161.85306968 97.4063899 164.46094228 95.59281124 167.27148438 90.56396484 C169.40709442 85.84388866 170.76585021 80.92612827 172.125 75.9375 C172.42792969 74.87080078 172.73085938 73.80410156 173.04296875 72.70507812 C174.94039823 65.9628787 176.51487905 59.85399356 176.4375 52.8125 C176.42847656 51.74386719 176.41945313 50.67523437 176.41015625 49.57421875 C176.39855469 48.76597656 176.38695312 47.95773437 176.375 47.125 C183.91536387 45.00840663 189.86147597 44.19289306 197.375 47.125 C197.705 50.425 198.035 53.725 198.375 57.125 C198.89449219 56.58230469 199.41398437 56.03960938 199.94921875 55.48046875 C205.64889766 49.63329353 209.8196908 45.42001066 218.375 45.125 C222.93650717 46.56947727 226.05322528 47.84804658 228.375 52.125 C229.09851427 54.10514432 229.77765389 56.10321315 230.375 58.125 C231.014375 57.25875 231.65375 56.3925 232.3125 55.5 C236.53471397 50.46444169 241.69581119 46.91027948 248 45.0625 C252.31141578 45.14234103 254.70002075 45.83680537 258.375 48.125 C261.59076224 52.24874217 263.00720299 56.69035663 262.69140625 61.95703125 C261.49766773 70.13635074 258.42376437 77.67530393 255.44042969 85.32617188 C253.53190846 90.3557437 252.56626049 94.76970629 252.375 100.125 C257.25526129 100.125 257.94229654 99.47597243 261.375 96.125 C270.82895807 84.35030287 273.47849526 68.89050845 277.3125 54.625 C277.82966072 52.71603271 278.34723635 50.80717776 278.86523438 48.8984375 C280.13357729 44.21853558 281.39062979 39.53569472 282.64324951 34.8515625 C283.36705533 32.1546025 284.09921335 29.46001524 284.83251953 26.765625 C285.28573284 25.08340096 285.73870672 23.40111238 286.19140625 21.71875 C286.39813461 20.96638062 286.60486298 20.21401123 286.81785583 19.43884277 C288.09061517 14.67350193 288.85987488 10.03200788 289.375 5.125 C288.715 5.125 288.055 5.125 287.375 5.125 C287.375 4.465 287.375 3.805 287.375 3.125 C294.44483571 1.10504694 301.5292811 -0.60902849 308.375 3.125 C311.24965129 8.87430258 308.63243615 15.75863649 306.96875 21.55859375 C306.72459351 22.43653091 306.48043701 23.31446808 306.22888184 24.2190094 C305.45267814 27.00261239 304.66405436 29.78251563 303.875 32.5625 C303.34422587 34.45745107 302.81426924 36.35263131 302.28515625 38.24804688 C300.99121646 42.87640377 299.68613177 47.50148529 298.375 52.125 C298.705 52.455 299.035 52.785 299.375 53.125 C300.6125 51.949375 300.6125 51.949375 301.875 50.75 C305.40527413 47.8275325 308.80396169 46.4914159 313.375 46.125 C318.43801015 47.01847238 321.14521084 49.17747991 324.375 53.125 C330.0357933 64.71614818 324.39567478 79.20472663 320.625 90.625 C320.2125 91.78 319.8 92.935 319.375 94.125 C326.81997535 87.31816539 329.96115984 79.81762429 333.14208984 70.42163086 C336.16284573 61.6067276 340.09000441 52.60829255 348.125 47.3125 C353.13711249 45.48115121 357.96173842 44.48146358 363.1875 45.875 C365.40382967 47.14147409 367.39664322 48.51300559 369.375 50.125 C369.045 48.805 368.715 47.485 368.375 46.125 C382.01607408 43.41470449 382.01607408 43.41470449 387.375 45.125 C389.4375 47 389.4375 47 390.375 50.125 C389.48603042 59.26742276 386.47093069 68.13800587 383.85351562 76.89648438 C381.05494843 86.34781974 381.05494843 86.34781974 380.375 96.125 C381.035 97.115 381.695 98.105 382.375 99.125 C393.92489951 91.425067 396.9766433 75.50875995 399.8828125 62.75390625 C400.92177475 57.20452852 400.89278433 51.74391887 400.375 46.125 C406.97395294 44.23958487 412.38676921 43.51809532 419.25 44.5625 C422.37243246 46.85840622 422.47637404 49.52198294 423.11328125 53.2265625 C423.19964844 53.85304688 423.28601563 54.47953125 423.375 55.125 C424.03886719 54.57070313 424.70273437 54.01640625 425.38671875 53.4453125 C426.26972656 52.72085938 427.15273438 51.99640625 428.0625 51.25 C428.93261719 50.53070312 429.80273438 49.81140625 430.69921875 49.0703125 C434.44775319 46.3451006 437.68545241 44.66748968 442.375 45.1875 C446.65720953 45.86618981 448.67582464 47.71133704 451.375 51.125 C454.7592062 56.94870467 454.01126305 62.62050639 452.39453125 68.984375 C450.60928859 74.98804819 448.54952374 80.84892875 446.125 86.625 C444.36077352 90.85342945 443.62031044 94.54587183 443.375 99.125 C443.705 99.785 444.035 100.445 444.375 101.125 C450.75975363 99.57718094 454.49337957 94.16773056 457.79296875 88.83203125 C460.19324476 84.30474143 461.83335064 79.79441952 463.25 74.875 C466.38016319 64.28252777 470.54496931 53.13224098 480.375 47.125 C485.24315036 45.03864985 490.32314635 44.2458993 495.375 46.125 C497.44066017 47.71813399 499.3906876 49.42973234 501.375 51.125 C502.97897041 45.43760576 504.56314388 39.74519369 506.12963867 34.04736328 C506.66466369 32.11196 507.2049612 30.17800589 507.75073242 28.24560547 C508.53672513 25.4590998 509.30327286 22.66784068 510.06640625 19.875 C510.31217911 19.01946533 510.55795197 18.16393066 510.81117249 17.2824707 C512.28346548 11.80075281 512.4366261 7.71191296 511.375 2.125 C525.14236584 -0.56636475 525.14236584 -0.56636475 531.375 2.125 C532.91962861 3.66962861 532.61461221 5.0708548 532.67919922 7.22802734 C532.5944537 14.57681361 530.46797398 21.45488719 528.5078125 28.4765625 C528.10791435 29.94495573 527.70916187 31.4136614 527.31149292 32.88265991 C526.26787343 36.72619708 525.20940023 40.56548188 524.14746094 44.4039917 C523.07271772 48.29821352 522.0113052 52.19606087 520.94921875 56.09375 C519.75253613 60.48369175 518.55466575 64.87326441 517.34597778 69.25991821 C513.57000956 81.50490286 513.57000956 81.50490286 512.25 94.125 C512.26804687 95.07375 512.28609375 96.0225 512.3046875 97 C512.32789063 97.70125 512.35109375 98.4025 512.375 99.125 C519.0858295 96.88805683 521.3205244 92.10079435 524.375 86.125 C525.89968359 82.34837514 527.15438399 78.50924841 528.375 74.625 C531.67717408 64.11681045 535.62549279 53.261203 545.375 47.125 C550.80629944 44.85372932 554.74756595 44.85428909 560.375 46.125 C563.375 48.1875 563.375 48.1875 565.375 50.125 C565.375 48.805 565.375 47.485 565.375 46.125 C572.65477325 44.5477158 578.27456007 43.57955927 585.375 46.125 C586.375 47.125 586.375 47.125 586.68359375 50.796875 C586.60674209 57.60835911 584.40710354 63.91066017 582.4375 70.375 C581.6976904 72.85892031 580.95934948 75.34327864 580.22265625 77.828125 C579.89273682 78.91770508 579.56281738 80.00728516 579.22290039 81.12988281 C577.99140674 85.48000204 577.24501 89.41567016 577.3125 93.9375 C577.32603516 95.12279297 577.32603516 95.12279297 577.33984375 96.33203125 C577.35144531 96.92371094 577.36304688 97.51539063 577.375 98.125 C578.035 98.455 578.695 98.785 579.375 99.125 C589.52359545 91.9794494 592.7513266 77.78365479 595.75 66.375 C596.12117895 65.00658666 596.49360513 63.6385111 596.8671875 62.27075195 C597.85074909 58.65265041 598.8148109 55.02967094 599.77233887 51.40460205 C600.39136437 49.0631008 601.01404494 46.72259765 601.63769531 44.38232422 C603.28226233 38.20873853 604.92538264 32.0348271 606.54443359 25.85449219 C606.72718842 25.15739639 606.90994324 24.4603006 607.09823608 23.74208069 C607.59249691 21.85459191 608.0853602 19.96673732 608.578125 18.07885742 C609.11807288 16.07737784 609.71944953 14.09165142 610.375 12.125 C610.53254704 10.16822445 610.53254704 10.16822445 610.5 8.125 C610.50386719 7.1040625 610.50386719 7.1040625 610.5078125 6.0625 C610.44131126 3.90625219 610.44131126 3.90625219 609.375 1.125 C613.34285497 -0.16299481 617.37285389 -0.09546765 621.5 -0.125 C622.22832031 -0.145625 622.95664062 -0.16625 623.70703125 -0.1875 C625.8203125 -0.203125 625.8203125 -0.203125 629.375 0.125 C632.22691784 4.40287675 631.88624129 8.412864 630.96316528 13.30978394 C630.38385797 15.68122326 629.73882795 18.02436937 629.06640625 20.37109375 C628.82411789 21.24771164 628.58182953 22.12432953 628.3321991 23.0275116 C627.81230918 24.90341445 627.28774933 26.77802832 626.75891113 28.65142822 C625.92928625 31.59160944 625.11290706 34.53519047 624.29980469 37.47998047 C621.9749446 45.88514472 619.61752096 54.28094991 617.23692322 62.67048645 C616.3887976 65.66678296 615.54971509 68.66556828 614.71212769 71.66482544 C614.14069062 73.69427501 613.55433882 75.71899072 612.96704102 77.74389648 C611.02070872 84.69495337 609.8084904 90.89675708 610.375 98.125 C613.55285699 97.83001766 614.99528791 97.5336633 617.20336914 95.15722656 C621.63188093 88.04267607 624.63883891 80.8013942 627.17553711 72.86230469 C627.81827751 70.85697436 628.48838285 68.86229519 629.16210938 66.8671875 C632.64535986 56.64906377 632.64535986 56.64906377 631.375 46.125 C635.45509772 45.15539503 639.31106118 44.95973428 643.5 44.9375 C644.71945312 44.92332031 645.93890625 44.90914062 647.1953125 44.89453125 C650.375 45.125 650.375 45.125 653.375 47.125 C654.2299902 54.90699409 652.05983636 61.35400477 649.625 68.6875 C648.8873664 70.98723861 648.1529842 73.28802266 647.421875 75.58984375 C647.06802734 76.70214355 646.71417969 77.81444336 646.34960938 78.96044922 C644.40406774 85.27761122 642.85382907 91.68431023 641.375 98.125 C657.97965741 75.64042416 657.97965741 75.64042416 663.375 49.125 C663.045 48.135 662.715 47.145 662.375 46.125 C666.25628261 45.23266774 669.95707476 44.90013393 673.9375 44.8125 C675.61005859 44.75642578 675.61005859 44.75642578 677.31640625 44.69921875 C680.375 45.125 680.375 45.125 682.83984375 46.58203125 C685.20350907 50.49741579 684.34349327 53.87317374 683.375 58.125 C682.21213924 62.39805186 680.87052434 66.60209255 679.5 70.8125 C673.56867361 85.4852344 673.56867361 85.4852344 673.375 100.125 C679.11687542 99.14467981 681.42420716 96.19316688 684.6953125 91.72265625 C687.29731358 87.69863133 689.39958691 83.48547406 691.375 79.125 C693.355 79.125 695.335 79.125 697.375 79.125 C695.64603983 90.41409285 687.64838595 100.91257938 678.6875 107.5625 C672.51611421 111.92429549 667.83079651 112.77534985 660.375 112.125 C656.20383396 110.60821235 653.51410546 109.06545743 651.375 105.125 C650.6875 101.875 650.6875 101.875 650.375 99.125 C649.93929687 99.72828125 649.50359375 100.3315625 649.0546875 100.953125 C641.22132331 111.46543192 641.22132331 111.46543192 635.2109375 112.49609375 C629.81110719 112.7940777 626.53205288 111.78716563 622.375 108.125 C621.33984833 106.47993502 620.33388081 104.81565827 619.375 103.125 C618.76011719 103.69089844 618.14523437 104.25679687 617.51171875 104.83984375 C616.29935547 105.94005859 616.29935547 105.94005859 615.0625 107.0625 C614.26199219 107.79339844 613.46148438 108.52429688 612.63671875 109.27734375 C608.34955257 112.77964013 603.67471029 112.64750665 598.375 112.125 C593.05150571 109.81043726 590.84716215 106.16400286 588.375 101.125 C588.02308594 101.58390625 587.67117188 102.0428125 587.30859375 102.515625 C583.15168043 107.68191937 579.46632657 111.54648881 572.6953125 112.50390625 C568.13720821 112.69537134 565.04889488 112.43787977 560.875 110.5 C558.14797697 107.90932812 556.79241074 105.5897818 555.375 102.125 C554.84390625 102.67929687 554.3128125 103.23359375 553.765625 103.8046875 C553.05921875 104.52914062 552.3528125 105.25359375 551.625 106 C550.92890625 106.71929688 550.2328125 107.43859375 549.515625 108.1796875 C545.89460457 111.47032285 543.25307631 112.40474437 538.375 112.375 C537.1065625 112.38273438 537.1065625 112.38273438 535.8125 112.390625 C533.16175611 112.10176188 531.60005944 111.58296186 529.375 110.125 C528.14453125 108.5390625 528.14453125 108.5390625 527.1875 106.75 C526.86394531 106.16476562 526.54039062 105.57953125 526.20703125 104.9765625 C525.34004841 103.0472204 524.82488807 101.18812306 524.375 99.125 C523.92769531 99.65609375 523.48039063 100.1871875 523.01953125 100.734375 C513.58883458 111.75361119 513.58883458 111.75361119 507.0703125 112.328125 C498.33780553 112.48738045 498.33780553 112.48738045 494.375 109.125 C492.28817931 106.74006207 491.38648698 105.15946095 490.375 102.125 C489.85550781 102.67929687 489.33601562 103.23359375 488.80078125 103.8046875 C488.10339844 104.52914062 487.40601563 105.25359375 486.6875 106 C486.00300781 106.71929688 485.31851563 107.43859375 484.61328125 108.1796875 C480.31875443 111.91210348 476.11800158 112.59525629 470.58984375 112.4296875 C466.92756107 111.92588142 465.03149591 110.6549961 462.375 108.125 C461.04127816 105.47776422 460.23324315 102.98581051 459.375 100.125 C458.95089844 100.50011719 458.52679687 100.87523437 458.08984375 101.26171875 C450.41616475 107.9572145 444.70771737 112.50780334 434.17578125 112.41015625 C429.93292272 111.97817763 427.75497788 110.71391923 424.375 108.125 C421.56802741 103.53869224 421.6425839 99.35293563 422.375 94.125 C423.98295038 88.00536465 426.22774068 82.07094394 428.375 76.125 C431.67685605 66.81232425 431.67685605 66.81232425 433.375 57.125 C418.03218215 66.51856195 415.01890785 83.80915238 410.64453125 100.015625 C410.42385986 100.83063477 410.20318848 101.64564453 409.97583008 102.48535156 C409.2529198 105.66133934 408.83564081 108.90051435 408.375 112.125 C402.435 112.125 396.495 112.125 390.375 112.125 C389.715 109.815 389.055 107.505 388.375 105.125 C387.90449219 105.54652344 387.43398438 105.96804688 386.94921875 106.40234375 C386.32660156 106.95019531 385.70398438 107.49804688 385.0625 108.0625 C384.14017578 108.88041016 384.14017578 108.88041016 383.19921875 109.71484375 C378.66821477 113.21739715 372.81260697 112.54819114 367.375 112.125 C362.27626784 110.28077773 360.73421994 106.75606136 358.375 102.125 C357.694375 103.0325 357.01375 103.94 356.3125 104.875 C352.82667741 108.9839864 349.25884077 111.63520482 343.9140625 112.54296875 C339.59787482 112.78275695 336.36932257 112.63727 332.875 109.9375 C329.00373064 105.58232197 328.16944576 101.81852793 327.375 96.125 C326.715 96.723125 326.055 97.32125 325.375 97.9375 C322.75709887 99.84638624 321.45344725 100.49586103 318.5 101.375 C314.90153091 102.59024285 313.19784641 104.18753971 310.8125 107.125 C307.28278998 111.46925848 304.02410478 113.56414537 298.3671875 114.43359375 C293.20303324 114.75758061 290.27933557 113.37861297 286.375 110.125 C285.715 109.135 285.055 108.145 284.375 107.125 C282.89 110.59 282.89 110.59 281.375 114.125 C278.58326945 114.15190104 275.79179652 114.17179053 273 114.1875 C272.2059375 114.19587891 271.411875 114.20425781 270.59375 114.21289062 C264.6015625 114.23828125 264.6015625 114.23828125 262.375 113.125 C262.705 110.155 263.035 107.185 263.375 104.125 C262.323125 105.07375 261.27125 106.0225 260.1875 107 C254.86174907 111.80361849 250.02904462 112.52560863 243.03515625 112.375 C238.4186905 111.94114713 235.63875821 110.47300875 232.5 107.125 C228.80160608 97.26261621 232.75216427 88.40729263 236.375 79.125 C237.34580249 76.46930139 238.27297499 73.80052507 239.1875 71.125 C239.60644531 69.92875 240.02539062 68.7325 240.45703125 67.5 C241.35474649 64.19946397 241.55637115 61.52441364 241.375 58.125 C228.66978295 64.79523895 224.38308908 79.33286728 220.375 92.125 C218.40847454 98.78093231 217.1808683 105.24581517 216.375 112.125 C213.39577407 112.15183987 210.41678705 112.17176037 207.4375 112.1875 C206.16229492 112.20006836 206.16229492 112.20006836 204.86132812 112.21289062 C204.05244141 112.21611328 203.24355469 112.21933594 202.41015625 112.22265625 C201.6612915 112.22789307 200.91242676 112.23312988 200.14086914 112.23852539 C198.375 112.125 198.375 112.125 197.375 111.125 C195.72496831 97.68129922 200.95584077 84.38488962 206.10546875 72.234375 C208.13347848 67.26731118 208.4787149 63.51817465 208.375 58.125 C193.5346433 69.41908964 188.67147715 86.46211904 185.375 104.125 C185.045 106.765 184.715 109.405 184.375 112.125 C178.435 112.125 172.495 112.125 166.375 112.125 C165.385 108.66 165.385 108.66 164.375 105.125 C163.90449219 105.54652344 163.43398438 105.96804688 162.94921875 106.40234375 C162.32660156 106.95019531 161.70398438 107.49804688 161.0625 108.0625 C160.44761719 108.60777344 159.83273437 109.15304687 159.19921875 109.71484375 C154.89736678 113.04025822 149.55126988 112.58879378 144.375 112.125 C140.61207527 110.52375543 138.53402618 108.57944189 136.375 105.125 C136.045 104.135 135.715 103.145 135.375 102.125 C134.72144531 102.83076172 134.72144531 102.83076172 134.0546875 103.55078125 C129.18893329 108.6377061 125.16693677 112.17229603 117.875 112.5625 C113.35095675 112.37209414 110.72217781 111.31278839 107.375 108.125 C104.77544404 103.42541061 103.92538163 98.40866361 103.375 93.125 C100.405 94.115 100.405 94.115 97.375 95.125 C97.44847656 95.85460937 97.52195312 96.58421875 97.59765625 97.3359375 C97.1830085 102.52994621 93.06686027 105.74623035 89.375 109.125 C83.69487134 112.42980213 77.38042702 113.88109465 70.87109375 112.65234375 C64.81993622 110.87487693 64.81993622 110.87487693 63.12109375 108.01171875 C62.75177734 107.07779297 62.75177734 107.07779297 62.375 106.125 C61.90449219 106.47433594 61.43398438 106.82367187 60.94921875 107.18359375 C60.32660156 107.63863281 59.70398438 108.09367188 59.0625 108.5625 C58.44761719 109.01496094 57.83273437 109.46742188 57.19921875 109.93359375 C52.66840192 112.89269254 47.58418494 112.58340827 42.375 112.125 C38.11532988 110.4030057 36.40833213 108.19166426 34.375 104.125 C34.045 103.135 33.715 102.145 33.375 101.125 C32.61316406 101.93904297 32.61316406 101.93904297 31.8359375 102.76953125 C26.64697876 108.16255016 22.59383838 112.1661472 14.8125 112.5 C10.88184124 112.34171844 8.43602199 111.74873313 5.375 109.125 C3.13333298 106.13611063 1.55634172 103.66902516 0.375 100.125 C-0.0375 100.65609375 -0.45 101.1871875 -0.875 101.734375 C-5.30427238 107.15232424 -9.57119061 111.39500531 -16.734375 112.4296875 C-20.74039356 112.56522948 -24.23575287 112.29035233 -27.625 110.125 C-30.41835192 106.46344411 -32.06783309 102.721627 -32.625 98.125 C-33.40875 99.15625 -34.1925 100.1875 -35 101.25 C-39.38872342 106.40334588 -45.22028294 109.99009431 -51.625 112.125 C-53.7466468 112.27054833 -55.87356706 112.34580412 -58 112.375 C-59.68222656 112.41367187 -59.68222656 112.41367187 -61.3984375 112.453125 C-66.20871315 111.96394443 -69.34863473 109.8918497 -72.375 106.1875 C-77.3138191 99.46521845 -76.26128994 90.1532728 -75.625 82.125 C-73.54092274 70.11016907 -68.44403976 55.90517932 -58.45703125 48.32421875 C-53.36896764 44.99365259 -48.63406779 44.28775775 -42.625 45.125 C-38.54866128 47.01219385 -36.98631848 48.51891738 -34.6875 52.375 C-33.11941469 57.90941874 -33.30377833 61.5362313 -35.875 66.57421875 C-40.25333345 73.44693929 -45.85682815 77.72784377 -52.625 82.125 C-54.11 83.115 -54.11 83.115 -55.625 84.125 C-56.25134843 87.06892275 -56.25134843 87.06892275 -56.375 90.4375 C-56.49101562 92.13326172 -56.49101562 92.13326172 -56.609375 93.86328125 C-56.62347441 96.80653324 -56.32971097 99.27946252 -55.625 102.125 C-49.53351944 102.0967987 -45.25989239 101.05357552 -40.5390625 97.11328125 C-30.44933961 86.6323242 -27.20732777 72.20865444 -23.48046875 58.5859375 C-23.20276862 57.57534208 -23.20276862 57.57534208 -22.91945839 56.5443306 C-21.94273122 52.98866009 -20.97156209 49.43152796 -20.00512695 45.87304688 C-19.01279344 42.22357358 -18.0011828 38.57973549 -16.98519421 34.93678856 C-16.19974204 32.10679541 -15.42871836 29.27301267 -14.66146278 26.43803787 C-14.2948343 25.09310332 -13.92290735 23.74960037 -13.54533958 22.40769577 C-11.43360309 14.88191649 -10.08816348 8.85258422 -11.625 1.125 C-7.73274524 0.046733 -4.01512726 -0.02307544 0 0 Z M-44.625 58.125 C-47.95493619 60.89333981 -49.64217044 63.75654405 -51.375 67.6875 C-51.80296875 68.63753906 -52.2309375 69.58757812 -52.671875 70.56640625 C-53.79954219 73.13848615 -53.79954219 73.13848615 -53.625 76.125 C-50.49750593 74.74036056 -48.3845015 73.12977577 -46 70.6875 C-45.40960938 70.09066406 -44.81921875 69.49382812 -44.2109375 68.87890625 C-41.97156634 66.40236031 -40.6580151 64.83482456 -40.5 61.4375 C-40.561875 60.2928125 -40.561875 60.2928125 -40.625 59.125 C-42.40641747 58.26141377 -42.40641747 58.26141377 -44.625 58.125 Z M135.0625 59.875 C127.30502629 67.97572476 124.21096587 82.47126987 124.1875 93.3125 C124.23487661 95.25042878 124.29186557 97.18827566 124.375 99.125 C125.035 99.455 125.695 99.785 126.375 100.125 C132.19820311 98.1680219 134.72031367 92.2680698 137.375 87.125 C140.65172742 78.76600148 142.62097986 70.12213366 141.375 61.125 C140.715 60.135 140.055 59.145 139.375 58.125 C137.15746431 57.92385244 137.15746431 57.92385244 135.0625 59.875 Z M358.98046875 59.2421875 C351.15649851 68.94132416 347.97880805 82.40953156 347.08984375 94.62109375 C347.1547847 97.19375957 347.1547847 97.19375957 348.87890625 98.97265625 C349.61947266 99.54306641 349.61947266 99.54306641 350.375 100.125 C358.98752529 94.17825634 362.7213677 84.97381953 364.91015625 74.98828125 C365.88455273 68.98632647 366.23476501 63.6657947 363.375 58.125 C360.46741306 57.81238595 360.46741306 57.81238595 358.98046875 59.2421875 Z M492.375 58.125 C483.17908013 68.08724653 478.91891219 82.84057948 478.94140625 96.26953125 C479.24750332 98.53400067 479.24750332 98.53400067 482.375 100.125 C490.13271345 95.33347111 493.80546568 85.64132271 495.91796875 77.1171875 C496.78021519 71.47205271 496.59934148 65.81662648 496.375 60.125 C495.055 59.465 493.735 58.805 492.375 58.125 Z M557.375 58.125 C548.17908013 68.08724653 543.91891219 82.84057948 543.94140625 96.26953125 C544.24750332 98.53400067 544.24750332 98.53400067 547.375 100.125 C556.31926667 94.6006 559.39058983 83.39292663 561.74609375 73.734375 C562.53667649 69.19711751 563.1410778 64.49420289 561.375 60.125 C559.39427591 58.82643734 559.39427591 58.82643734 557.375 58.125 Z M299.859375 62.18359375 C297.21312251 65.31665683 295.36528034 68.50793865 293.625 72.1875 C293.32207031 72.79916016 293.01914062 73.41082031 292.70703125 74.04101562 C289.78468534 80.04805999 289.2363113 84.74072246 289.3125 91.375 C289.31701172 92.12007812 289.32152344 92.86515625 289.32617188 93.6328125 C289.33790754 95.4635764 289.3558415 97.29429873 289.375 99.125 C290.695 99.785 292.015 100.445 293.375 101.125 C299.61259909 95.03246135 301.83465235 88.35956086 304.375 80.125 C304.62378906 79.37863281 304.87257813 78.63226562 305.12890625 77.86328125 C306.8708009 72.0529054 306.55486326 66.12044209 306.375 60.125 C302.34917489 59.70279785 302.34917489 59.70279785 299.859375 62.18359375 Z M77.375 78.125 C76.53709211 79.91453185 75.70480604 81.70669695 74.875 83.5 C74.4109375 84.49773437 73.946875 85.49546875 73.46875 86.5234375 C72.2458127 88.96192626 72.2458127 88.96192626 72.375 91.125 C74.685 91.125 76.995 91.125 79.375 91.125 C79.42947047 89.70876784 79.46800508 88.29191809 79.5 86.875 C79.52320313 86.08609375 79.54640625 85.2971875 79.5703125 84.484375 C79.3578378 81.91768059 78.66154105 80.3333933 77.375 78.125 Z M68.375 98.125 C68.045 99.775 67.715 101.425 67.375 103.125 C72.53498377 102.75090749 72.53498377 102.75090749 76.8125 100.0625 C77.328125 99.423125 77.84375 98.78375 78.375 98.125 C75.075 98.125 71.775 98.125 68.375 98.125 Z " fill="#DFBC49" transform="translate(228.625,484.875)"/>
<path d="M0 0 C5.03504305 2.65645759 8.65360433 6.65020345 10.6171875 11.91796875 C11.36171031 14.36969967 12.03938955 16.81914903 12.64453125 19.30859375 C13.42828125 18.81359375 14.21203125 18.31859375 15.01953125 17.80859375 C17.64453125 16.30859375 17.64453125 16.30859375 19.64453125 16.30859375 C20.01964844 15.40173828 20.01964844 15.40173828 20.40234375 14.4765625 C21.83238896 11.98072888 23.06972818 11.08635332 25.51953125 9.62109375 C26.19757812 9.20472656 26.875625 8.78835938 27.57421875 8.359375 C32.32902158 5.94608828 37.47342161 5.47441404 42.6640625 6.83984375 C49.14799201 9.12099677 54.5221207 11.89635858 57.83203125 18.2265625 C59.35177495 22.12090574 60.0147482 26.19014405 60.64453125 30.30859375 C61.19753906 30.15003906 61.75054688 29.99148438 62.3203125 29.828125 C69.34811519 28.2572044 76.18310697 28.73029505 82.6328125 31.9609375 C86.5429747 34.58036655 89.54318729 38.10590583 91.64453125 42.30859375 C93.13532286 59.688582 93.13532286 59.688582 87.46484375 66.51953125 C76.54159485 77.25525657 62.35903983 79.20683592 47.81420898 82.02832031 C45.05476027 82.56388663 42.29780685 83.11108984 39.54101562 83.66015625 C37.7826838 84.00717846 36.02422472 84.35355669 34.265625 84.69921875 C33.03289101 84.94288177 33.03289101 84.94288177 31.7752533 85.19146729 C28.68596931 85.78856728 25.7990151 86.30859375 22.64453125 86.30859375 C22.45117188 85.46296875 22.2578125 84.61734375 22.05859375 83.74609375 C21.79820312 82.61171875 21.5378125 81.47734375 21.26953125 80.30859375 C21.01429688 79.19484375 20.7590625 78.08109375 20.49609375 76.93359375 C19.58334977 73.04815148 18.6205155 69.17858349 17.64453125 65.30859375 C16.87262451 65.67210937 16.10071777 66.035625 15.30541992 66.41015625 C12.43937988 67.75654561 9.57099821 69.09777324 6.70092773 70.43554688 C5.45940399 71.0155193 4.21883378 71.59753751 2.97924805 72.18164062 C1.19702324 73.02100641 -0.5889446 73.85241008 -2.375 74.68359375 C-3.44854736 75.18632813 -4.52209473 75.6890625 -5.62817383 76.20703125 C-8.35546875 77.30859375 -8.35546875 77.30859375 -11.35546875 77.30859375 C-11.64679687 76.61523926 -11.938125 75.92188477 -12.23828125 75.20751953 C-19.92673798 56.89569537 -19.92673798 56.89569537 -27.98046875 38.74267578 C-31.78472014 30.33552408 -33.23837997 20.83947003 -30.16796875 11.87109375 C-24.04437071 -0.16494377 -13.09410872 -3.84354435 0 0 Z M32.64453125 12.30859375 C32.31453125 12.96859375 31.98453125 13.62859375 31.64453125 14.30859375 C32.22460938 14.44394531 32.8046875 14.57929688 33.40234375 14.71875 C39.65143923 16.44086047 43.16778028 18.80472019 46.64453125 24.30859375 C49.26754786 30.03153908 49.46148508 35.44130817 47.39453125 41.37109375 C42.77645511 52.3363887 34.11623069 57.46058475 23.64453125 62.30859375 C24.63453125 67.91859375 25.62453125 73.52859375 26.64453125 79.30859375 C35.06500332 78.6297841 43.23558814 77.19390854 51.51953125 75.55859375 C52.80472656 75.31882812 54.08992187 75.0790625 55.4140625 74.83203125 C71.28913965 71.79930552 71.28913965 71.79930552 83.55859375 62.0546875 C87.02352931 56.48337026 87.40179012 51.83048575 86.64453125 45.30859375 C84.3422985 40.438486 81.54680135 37.54471695 76.64453125 35.30859375 C67.51494693 33.98850521 60.59657373 35.84652583 52.64453125 40.30859375 C52.97453125 39.48359375 53.30453125 38.65859375 53.64453125 37.80859375 C55.64577358 30.8042456 55.13730007 25.69192986 51.64453125 19.30859375 C48.65439984 15.76764866 46.17150295 13.44033668 41.64453125 12.30859375 C38.63597028 12.16146345 35.65359296 12.19059133 32.64453125 12.30859375 Z " fill="#F1D759" transform="translate(943.35546875,482.69140625)"/>
<path d="M0 0 C0.8559375 0.32871094 1.711875 0.65742188 2.59375 0.99609375 C10.48991522 4.43282831 15.56569939 9.91665705 19.9375 17.25 C23.99193003 27.74381891 22.5906967 38.52757466 18.546875 48.7734375 C16.29073765 53.47942096 13.5284563 57.18244749 10 61 C9.14148438 62.01126953 9.14148438 62.01126953 8.265625 63.04296875 C0.73038745 71.36715212 -10.83926217 78.16535817 -22 80 C-23.99963729 80.03808833 -26.00052826 80.04596487 -28 80 C-31.1039846 89.97090026 -34.06664095 99.97768992 -37 110 C-43.27 110 -49.54 110 -56 110 C-55.37472141 104.37249273 -54.85613052 99.80414306 -53.43701172 94.5 C-53.11932831 93.30004395 -52.8016449 92.10008789 -52.47433472 90.86376953 C-52.12629395 89.57579906 -51.77807317 88.28787722 -51.4296875 87 C-51.06621661 85.63799816 -50.70328266 84.27585293 -50.34085083 82.91357422 C-49.38603154 79.33121467 -48.42317872 75.751061 -47.45880127 72.17126465 C-46.69250739 69.32127631 -45.93208844 66.46973754 -45.17194748 63.61810303 C-41.51355267 49.89493635 -37.80615748 36.18514581 -34.0078125 22.5 C-33.71655487 21.44312988 -33.42529724 20.38625977 -33.12521362 19.29736328 C-32.85846832 18.3432959 -32.59172302 17.38922852 -32.31689453 16.40625 C-31.96958786 15.15811523 -31.96958786 15.15811523 -31.61526489 13.88476562 C-31 12 -31 12 -30 11 C-23.69283697 10.37170023 -18.48482183 10.73244657 -13 14 C-11.41545543 17.56171522 -12.39353351 20.36149159 -13.40625 24.00390625 C-13.73496094 25.20772949 -14.06367187 26.41155273 -14.40234375 27.65185547 C-14.76817002 28.95542025 -15.13405677 30.25896805 -15.5 31.5625 C-15.86700635 32.89699041 -16.23287928 34.23179301 -16.59765625 35.56689453 C-17.16099357 37.62870173 -17.72490497 39.69032539 -18.29223633 41.7510376 C-20.26962239 48.93994849 -22.14048624 56.15476537 -24 63.375 C-24.45342773 65.12985718 -24.45342773 65.12985718 -24.91601562 66.92016602 C-25.61172185 69.61317637 -26.30641399 72.30644297 -27 75 C-26.05125 74.175 -25.1025 73.35 -24.125 72.5 C-21.25 70 -21.25 70 -19 70 C-18.62101562 69.16275391 -18.62101562 69.16275391 -18.234375 68.30859375 C-16.81459495 65.65324562 -15.09587735 63.44139232 -13.25 61.0625 C-4.6491743 49.39665277 1.25626741 35.3034443 -0.24609375 20.58984375 C-1.4624287 15.00331418 -3.85432802 10.55561218 -8.5 7.1875 C-17.95308568 2.6972843 -32.85989263 3.54794179 -42.625 6.5625 C-56.32523626 12.16359374 -65.16040542 20.63480901 -70.98828125 34.24609375 C-71.99742686 36.9929959 -72.76283902 39.73196473 -73.5 42.5625 C-74.70508982 46.78700931 -74.70508982 46.78700931 -77.25 48.625 C-80.53527415 49.07299193 -83.68880003 49.12985098 -87 49 C-88.10159491 37.54341289 -81.99564921 27.65289944 -75 19 C-66.73003463 9.10525114 -55.35293936 2.47198 -43 -1 C-42.21109375 -1.22429687 -41.4221875 -1.44859375 -40.609375 -1.6796875 C-28.06497375 -4.5593771 -12.00002585 -4.94001064 0 0 Z " fill="#EACE54" transform="translate(132,489)"/>
<path d="M0 0 C0.93199219 -0.00257813 1.86398437 -0.00515625 2.82421875 -0.0078125 C5.3125 0.125 5.3125 0.125 8.3125 1.125 C10.42191286 5.34382573 9.7434056 10.74610209 8.375 15.125 C7.3125 17.125 7.3125 17.125 6.3125 18.125 C4.96982587 18.21131874 3.62275678 18.23206473 2.27734375 18.22265625 C1.46845703 18.21943359 0.65957031 18.21621094 -0.17382812 18.21289062 C-1.02396484 18.20451172 -1.87410156 18.19613281 -2.75 18.1875 C-3.60400391 18.18298828 -4.45800781 18.17847656 -5.33789062 18.17382812 C-7.45445663 18.16200373 -9.57098685 18.14406769 -11.6875 18.125 C-11.6875 12.515 -11.6875 6.905 -11.6875 1.125 C-7.51832611 0.43013769 -4.13383973 -0.01153093 0 0 Z " fill="#F5DD5D" transform="translate(285.6875,505.875)"/>
</svg>
